<?xml version="1.0" encoding="UTF-8"?>
<svg version="1.1" xmlns="http://www.w3.org/2000/svg" width="500" height="500">
<path d="M0 0 C165 0 330 0 500 0 C500 165 500 330 500 500 C335 500 170 500 0 500 C0 335 0 170 0 0 Z " fill="#0B043A" transform="translate(0,0)"/>
<path d="M0 0 C2.97111275 2.60397296 4.73908452 5.21725355 6 9 C6.06802967 10.72795352 6.08495645 12.45835365 6.0625 14.1875 C6.05347656 15.08855469 6.04445313 15.98960937 6.03515625 16.91796875 C6.01775391 17.94857422 6.01775391 17.94857422 6 19 C7.18335938 18.94199219 8.36671875 18.88398438 9.5859375 18.82421875 C26.99265145 18.21827135 26.99265145 18.21827135 34 24 C40.47164179 30.71044776 40.47164179 30.71044776 41.4921875 35.1328125 C41.91047972 37.42282882 41.91047972 37.42282882 45.0625 39.3125 C48 42 48 42 48.625 45.4375 C47.89243597 49.61311497 46.7593457 51.79319283 44 55 C41.25 56.375 41.25 56.375 39 57 C39 56.01 39 55.02 39 54 C40.2375 53.1646875 40.2375 53.1646875 41.5 52.3125 C44.16090072 50.3268113 44.16090072 50.3268113 44.33203125 47.96484375 C44.31447145 45.9735619 44.16537339 43.98448063 44 42 C40.76209472 41.07488421 38.23416419 40.37523639 35.1171875 41.953125 C30.34381762 45.71396187 27.47655032 50.11127267 26 56 C25.32853918 61.77317862 24.65563928 67.77207062 28 72.8125 C28.66 73.534375 29.32 74.25625 30 75 C35.22960704 74.71968538 35.22960704 74.71968538 39.3125 71.6875 C42.17201361 67.13345981 43.45863374 63.28484365 44.4375 58.0234375 C45 56 45 56 47 54 C47.66 54.33 48.32 54.66 49 55 C48.98259766 56.69769531 48.98259766 56.69769531 48.96484375 58.4296875 C48.95546546 59.91145669 48.9463653 61.39322765 48.9375 62.875 C48.92912109 63.62136719 48.92074219 64.36773437 48.91210938 65.13671875 C48.79311916 69.19845578 48.79311916 69.19845578 50 73 C52.39244966 73.01130721 52.39244966 73.01130721 55 72 C56.48081984 69.77272608 57.55132532 67.84855351 58.625 65.4375 C58.92349854 64.79562744 59.22199707 64.15375488 59.52954102 63.49243164 C60.36899439 61.66888701 61.18524303 59.83471199 62 58 C62.55107422 56.88625 62.55107422 56.88625 63.11328125 55.75 C65.47415472 50.55831616 65.13244268 45.5787837 64.8125 39.953125 C65.02360048 36.62829244 65.76313231 35.39997262 68 33 C68.99 33.33 69.98 33.66 71 34 C70.95359375 34.72445312 70.9071875 35.44890625 70.859375 36.1953125 C70.56693972 44.02840027 71.84731048 47.38403359 77.046875 53.34765625 C82.341052 59.87150912 83.83055104 64.11708314 83.28125 72.54296875 C83.1884375 73.35378906 83.095625 74.16460937 83 75 C87.57162117 68.97148857 90.64743356 62.64869649 93.46313477 55.67382812 C96.01631446 49.48521639 99.10243476 44.84748079 105.1328125 41.6640625 C108.39055689 40.50545048 110.75742744 41.02111017 114 42 C116.4375 43.5625 116.4375 43.5625 118 46 C118.87448896 51.82992639 117.92072896 55.46894073 114.55078125 60.30078125 C111.01122302 64.1791385 107.12748299 64.94631033 102.0625 65.1875 C101.051875 65.125625 100.04125 65.06375 99 65 C100.56878906 70.90817226 100.56878906 70.90817226 103.6875 76.0625 C107.22379206 77.49613192 110.31066263 77.80293271 114 77 C122.91051697 72.74088497 125.62488715 61.50908734 129 53 C129.99 53 130.98 53 132 53 C129.06677958 62.8727907 125.38013719 73.01869848 116.875 79.3125 C112.38851717 81.67634579 107.94666216 81.77803461 103 81 C96.96165434 78.37958585 94.74321265 73.68063505 92 68 C91.56429688 68.60328125 91.12859375 69.2065625 90.6796875 69.828125 C84.05287225 78.72125369 84.05287225 78.72125369 79 81 C74.54100275 81.60965622 70.62993045 81.99177124 66.6953125 79.59765625 C65.85613281 78.80681641 65.85613281 78.80681641 65 78 C65 77.34 65 76.68 65 76 C65.61488281 76.11859375 66.22976563 76.2371875 66.86328125 76.359375 C67.67152344 76.48828125 68.47976563 76.6171875 69.3125 76.75 C70.11300781 76.88921875 70.91351563 77.0284375 71.73828125 77.171875 C74.12829756 77.22995172 74.12829756 77.22995172 75.75390625 75.33203125 C78.07655009 70.98526519 77.88416572 66.77081089 77 62 C73.68858238 54.94342019 73.68858238 54.94342019 68 50 C67.85304688 50.58265625 67.70609375 51.1653125 67.5546875 51.765625 C65.14850252 60.56064596 61.78106515 71.55325439 54 77 C50.875 77.5 50.875 77.5 48 77 C45.44050454 75.14657225 45.02081202 74.06243607 44 71 C43.401875 71.78375 42.80375 72.5675 42.1875 73.375 C39.82301957 76.21237652 38.19921975 77.78726557 34.51171875 78.44140625 C27.02893123 78.762245 27.02893123 78.762245 23.98046875 76.50390625 C18.62081259 70.23141328 18.54620069 65.10506666 19 57 C20 53.25 20 53.25 21 51 C18.26611377 52.15430752 16.93002539 52.80565589 15 55 C14.07471453 57.9012481 14.07471453 57.9012481 13.5 61.1875 C11.41997235 71.87453861 5.60020276 78.5388596 -3 85 C-14.09731546 92.04292902 -27.99690733 92.75012064 -40.625 89.9375 C-41.33914063 89.74027344 -42.05328125 89.54304688 -42.7890625 89.33984375 C-49.69910683 88.27769913 -54.26042461 91.78205534 -59.6875 95.5 C-61.18950201 96.51324519 -62.69333486 97.5237831 -64.19921875 98.53125 C-64.85752686 98.98048828 -65.51583496 99.42972656 -66.1940918 99.89257812 C-70.08312753 102.27741875 -73.54851089 102.16187233 -78 102 C-78.66 101.67 -79.32 101.34 -80 101 C-79.67 102.65 -79.34 104.3 -79 106 C-83.099361 106.9327418 -87.12043288 107.28825262 -91.3125 107.5625 C-92.56675781 107.64628906 -93.82101563 107.73007812 -95.11328125 107.81640625 C-96.06589844 107.87699219 -97.01851562 107.93757813 -98 108 C-98.50660156 107.15115234 -98.50660156 107.15115234 -99.0234375 106.28515625 C-99.46945313 105.55167969 -99.91546875 104.81820312 -100.375 104.0625 C-100.81585938 103.33160156 -101.25671875 102.60070312 -101.7109375 101.84765625 C-102.8773984 99.86227728 -102.8773984 99.86227728 -105 99 C-108.59748668 98.76754701 -112.1884991 98.60499713 -115.79101562 98.48242188 C-119.6486236 98.30632091 -121.72287807 98.18474795 -125 96 C-127.01658904 95.58483202 -127.01658904 95.58483202 -129.125 95.4375 C-133 95 -133 95 -134 94 C-139.1761903 94.36747494 -139.1761903 94.36747494 -144 96 C-146.3329866 96.04022391 -148.66706666 96.04320247 -151 96 C-151 96.66 -151 97.32 -151 98 C-154.48668432 97.00380448 -157.02001499 95.98582272 -160 93.875 C-163.48206906 91.69870684 -164.97062497 91.50660714 -169 92 C-170.05791748 92.33298096 -171.11583496 92.66596191 -172.20581055 93.0090332 C-176.14772675 94.03858329 -179.73270875 94.27336474 -183.76953125 94.23046875 C-184.49057541 94.23001053 -185.21161957 94.22955231 -185.95451355 94.2290802 C-187.47140154 94.22607727 -188.988287 94.21825028 -190.50512695 94.20581055 C-192.79585021 94.18763213 -195.0861654 94.18530084 -197.37695312 94.18554688 C-220.78566479 94.1339974 -220.78566479 94.1339974 -228 87 C-234.4209399 80.00722067 -235.34277855 72.0446132 -235.25 62.875 C-235.25773437 62.10285156 -235.26546875 61.33070313 -235.2734375 60.53515625 C-235.25787587 55.96781911 -234.73029176 52.29826445 -233 48 C-232.01 48 -231.02 48 -230 48 C-229.98018066 48.59425781 -229.96036133 49.18851563 -229.93994141 49.80078125 C-229.84376007 52.53424419 -229.73446443 55.26703803 -229.625 58 C-229.5940625 58.93457031 -229.563125 59.86914062 -229.53125 60.83203125 C-229.2934434 66.49975528 -228.58129952 71.54901628 -227 77 C-223.73969834 76.37117338 -223.73969834 76.37117338 -221.3671875 74.07421875 C-220.87476563 73.28660156 -220.38234375 72.49898438 -219.875 71.6875 C-219.37742187 70.90761719 -218.87984375 70.12773437 -218.3671875 69.32421875 C-217.91601562 68.55722656 -217.46484375 67.79023438 -217 67 C-216.61972656 66.38640625 -216.23945313 65.7728125 -215.84765625 65.140625 C-214.25104955 61.10864126 -214.58360108 56.69893574 -214.44140625 52.41015625 C-213.9725774 48.78814222 -213.33389739 46.80174015 -211 44 C-209.68 44 -208.36 44 -207 44 C-206.67 45.98 -206.34 47.96 -206 50 C-205.24976563 49.46890625 -204.49953125 48.9378125 -203.7265625 48.390625 C-198.87584079 45.04277173 -194.33109921 41.91087932 -188.75 39.9375 C-182.61705827 37.70020286 -178.56312857 33.69662485 -174.125 29.02734375 C-168.61367192 23.24282484 -168.61367192 23.24282484 -164 23 C-158.23805884 22.25255607 -154.69352834 19.38382368 -151 15 C-150.36229312 11.31547135 -150.82706198 9.51881406 -152 6 C-150.36220278 5.7632619 -148.72421607 5.52778164 -147.08544922 5.29785156 C-145.70805894 5.10112759 -144.33198608 4.89491916 -142.95751953 4.67871094 C-140.82941396 4.35977005 -138.70097452 4.11367762 -136.5625 3.875 C-135.85029297 3.75640625 -135.13808594 3.6378125 -134.40429688 3.515625 C-131.97764288 3.2775881 -130.33529399 3.26137637 -128 4 C-126.13354492 5.98364258 -126.13354492 5.98364258 -124.265625 8.44921875 C-121.92753268 11.3854411 -120.73179465 12.79872437 -117.07788086 13.80371094 C-113.75268109 14.03447713 -110.51862716 14.04757203 -107.1875 13.9375 C-104.95187386 13.91839208 -102.71617298 13.90633846 -100.48046875 13.90234375 C-99.49973389 13.87648193 -98.51899902 13.85062012 -97.50854492 13.82397461 C-95 14 -95 14 -92 16 C-90.01605112 16.37882861 -90.01605112 16.37882861 -87.9375 16.5 C-84 17 -84 17 -82 19 C-81.31035156 18.79503906 -80.62070312 18.59007812 -79.91015625 18.37890625 C-74.55357827 16.84320694 -69.43597247 15.64027729 -63.875 15.2109375 C-61.7745913 15.04052354 -61.7745913 15.04052354 -59 14 C-56.07421875 15.1796875 -56.07421875 15.1796875 -52.6875 16.875 C-48.39711454 19.01770122 -44.77652363 20.43635576 -40 21 C-40.1546875 19.2675 -40.1546875 19.2675 -40.3125 17.5 C-40.29123098 11.48086614 -37.36287188 7.59740011 -33.42578125 3.26953125 C-23.93783591 -5.68761994 -11.12430354 -6.34842453 0 0 Z " fill="#4E406C" transform="translate(346,200)"/>
<path d="M0 0 C3.48832821 3.1480035 6.06419243 5.8175773 7.5625 10.3125 C7.60204234 12.64549825 7.60651732 14.97958189 7.5625 17.3125 C8.11599121 17.31660889 8.66948242 17.32071777 9.23974609 17.32495117 C30.73989228 17.60460968 30.73989228 17.60460968 37.5625 23.3125 C44.03804806 30.03987493 44.03804806 30.03987493 45.0546875 34.4453125 C45.47297972 36.73532882 45.47297972 36.73532882 48.625 38.625 C51.5625 41.3125 51.5625 41.3125 52.1875 44.75 C51.45493597 48.92561497 50.3218457 51.10569283 47.5625 54.3125 C44.8125 55.6875 44.8125 55.6875 42.5625 56.3125 C42.5625 55.3225 42.5625 54.3325 42.5625 53.3125 C43.3875 52.755625 44.2125 52.19875 45.0625 51.625 C47.72340072 49.6393113 47.72340072 49.6393113 47.89453125 47.27734375 C47.87697145 45.2860619 47.72787339 43.29698063 47.5625 41.3125 C44.32459472 40.38738421 41.79666419 39.68773639 38.6796875 41.265625 C33.90631762 45.02646187 31.03905032 49.42377267 29.5625 55.3125 C28.89103918 61.08567862 28.21813928 67.08457062 31.5625 72.125 C32.5525 73.2078125 32.5525 73.2078125 33.5625 74.3125 C38.79210704 74.03218538 38.79210704 74.03218538 42.875 71 C45.73451361 66.44595981 47.02113374 62.59734365 48 57.3359375 C48.5625 55.3125 48.5625 55.3125 50.5625 53.3125 C51.2225 53.6425 51.8825 53.9725 52.5625 54.3125 C52.55089844 55.44429688 52.53929687 56.57609375 52.52734375 57.7421875 C52.51796546 59.22395669 52.5088653 60.70572765 52.5 62.1875 C52.48743164 63.30705078 52.48743164 63.30705078 52.47460938 64.44921875 C52.35561916 68.51095578 52.35561916 68.51095578 53.5625 72.3125 C55.95494966 72.32380721 55.95494966 72.32380721 58.5625 71.3125 C60.04331984 69.08522608 61.11382532 67.16105351 62.1875 64.75 C62.48599854 64.10812744 62.78449707 63.46625488 63.09204102 62.80493164 C63.93149439 60.98138701 64.74774303 59.14721199 65.5625 57.3125 C65.92988281 56.57 66.29726563 55.8275 66.67578125 55.0625 C69.03665472 49.87081616 68.69494268 44.8912837 68.375 39.265625 C68.58610048 35.94079244 69.32563231 34.71247262 71.5625 32.3125 C73.0475 32.8075 73.0475 32.8075 74.5625 33.3125 C74.51609375 34.03695312 74.4696875 34.76140625 74.421875 35.5078125 C74.12943972 43.34090027 75.40981048 46.69653359 80.609375 52.66015625 C85.903552 59.18400912 87.39305104 63.42958314 86.84375 71.85546875 C86.7509375 72.66628906 86.658125 73.47710937 86.5625 74.3125 C91.13412117 68.28398857 94.20993356 61.96119649 97.02563477 54.98632812 C99.57881446 48.79771639 102.66493476 44.15998079 108.6953125 40.9765625 C111.95305689 39.81795048 114.31992744 40.33361017 117.5625 41.3125 C120 42.875 120 42.875 121.5625 45.3125 C122.43698896 51.14242639 121.48322896 54.78144073 118.11328125 59.61328125 C114.57372302 63.4916385 110.68998299 64.25881033 105.625 64.5 C104.614375 64.438125 103.60375 64.37625 102.5625 64.3125 C104.13128906 70.22067226 104.13128906 70.22067226 107.25 75.375 C110.78629206 76.80863192 113.87316263 77.11543271 117.5625 76.3125 C126.47301697 72.05338497 129.18738715 60.82158734 132.5625 52.3125 C133.5525 52.3125 134.5425 52.3125 135.5625 52.3125 C132.62927958 62.1852907 128.94263719 72.33119848 120.4375 78.625 C115.95101717 80.98884579 111.50916216 81.09053461 106.5625 80.3125 C100.52415434 77.69208585 98.30571265 72.99313505 95.5625 67.3125 C95.12679687 67.91578125 94.69109375 68.5190625 94.2421875 69.140625 C87.61537225 78.03375369 87.61537225 78.03375369 82.5625 80.3125 C78.10350275 80.92215622 74.19243045 81.30427124 70.2578125 78.91015625 C69.41863281 78.11931641 69.41863281 78.11931641 68.5625 77.3125 C68.5625 76.6525 68.5625 75.9925 68.5625 75.3125 C69.48482422 75.49039063 69.48482422 75.49039063 70.42578125 75.671875 C71.23402344 75.80078125 72.04226563 75.9296875 72.875 76.0625 C73.67550781 76.20171875 74.47601563 76.3409375 75.30078125 76.484375 C77.69079756 76.54245172 77.69079756 76.54245172 79.31640625 74.64453125 C81.63905009 70.29776519 81.44666572 66.08331089 80.5625 61.3125 C77.25108238 54.25592019 77.25108238 54.25592019 71.5625 49.3125 C71.41554688 49.89515625 71.26859375 50.4778125 71.1171875 51.078125 C68.71100252 59.87314596 65.34356515 70.86575439 57.5625 76.3125 C54.4375 76.8125 54.4375 76.8125 51.5625 76.3125 C49.00300454 74.45907225 48.58331202 73.37493607 47.5625 70.3125 C46.964375 71.09625 46.36625 71.88 45.75 72.6875 C43.38551957 75.52487652 41.76171975 77.09976557 38.07421875 77.75390625 C30.59143123 78.074745 30.59143123 78.074745 27.54296875 75.81640625 C22.18331259 69.54391328 22.10870069 64.41756666 22.5625 56.3125 C23.5625 52.5625 23.5625 52.5625 24.5625 50.3125 C24.08039063 50.6734375 23.59828125 51.034375 23.1015625 51.40625 C22.46992188 51.8703125 21.83828125 52.334375 21.1875 52.8125 C20.56101562 53.2765625 19.93453125 53.740625 19.2890625 54.21875 C17.5625 55.3125 17.5625 55.3125 15.5625 55.3125 C15.4696875 56.983125 15.4696875 56.983125 15.375 58.6875 C14.20388496 67.52551483 9.77754531 74.09510198 2.9140625 79.6171875 C2.13804687 80.17664063 1.36203125 80.73609375 0.5625 81.3125 C-0.06914062 81.76882813 -0.70078125 82.22515625 -1.3515625 82.6953125 C-9.52093301 87.34957538 -21.81783011 86.781739 -30.6796875 84.46484375 C-36.50582776 81.85282038 -40.3058133 77.83628688 -43.4375 72.3125 C-45.88390375 64.97328876 -45.71376441 54.8916168 -42.5 47.8125 C-39.46475501 42.73363835 -35.48968886 38.42564455 -30.4375 35.3125 C-26.96906414 35.24943753 -25.4583205 35.80208975 -22.4375 37.3125 C-20.10581782 37.40965342 -17.77120043 37.44228217 -15.4375 37.4375 C-14.179375 37.44007813 -12.92125 37.44265625 -11.625 37.4453125 C-8.54072182 37.53477358 -8.54072182 37.53477358 -6.4375 36.3125 C-5.78194881 33.78516765 -5.78194881 33.78516765 -5.4375 31.3125 C-8.20315382 30.39061539 -9.82033702 30.19464778 -12.66796875 30.21484375 C-13.87163086 30.21967773 -13.87163086 30.21967773 -15.09960938 30.22460938 C-16.34967773 30.23717773 -16.34967773 30.23717773 -17.625 30.25 C-18.46998047 30.25451172 -19.31496094 30.25902344 -20.18554688 30.26367188 C-22.26956155 30.27544597 -24.35353977 30.2933811 -26.4375 30.3125 C-29.82995174 24.09268316 -31.58544915 19.48132528 -30.4375 12.3125 C-28.26135385 6.00412127 -23.62877227 1.87102832 -17.75 -1 C-11.5570536 -2.2853285 -5.77256748 -2.83380585 0 0 Z " fill="#4D3C69" transform="translate(342.4375,200.6875)"/>
<path d="M0 0 C2.85546875 0.3046875 2.85546875 0.3046875 4.48828125 2.23828125 C4.98070312 3.06457031 5.473125 3.89085937 5.98046875 4.7421875 C8.13548563 7.4593827 9.73822679 9.05164704 13.17089844 9.82910156 C19.04785628 10.48643572 24.9499367 10.48100981 30.85546875 10.3046875 C30.44554687 11.06652344 30.035625 11.82835937 29.61328125 12.61328125 C26.34928884 18.86796528 24.1059568 24.37016288 22.85546875 31.3046875 C22.36046875 31.7996875 22.36046875 31.7996875 21.85546875 32.3046875 C19.9296875 32.25390625 19.9296875 32.25390625 17.54296875 31.9921875 C16.37314453 31.87423828 16.37314453 31.87423828 15.1796875 31.75390625 C12.77339604 31.28882471 10.98413043 30.49810194 8.85546875 29.3046875 C8.52546875 29.9646875 8.19546875 30.6246875 7.85546875 31.3046875 C14.74370944 33.71458854 14.74370944 33.71458854 21.85546875 35.3046875 C22.23775559 47.15557939 20.20173442 58.72802338 12.32421875 68.1328125 C10.85546875 69.3046875 10.85546875 69.3046875 8.29296875 69.6171875 C5.85546875 69.3046875 5.85546875 69.3046875 3.85546875 67.3046875 C3.628404 62.68770425 3.95242728 58.81989483 4.85546875 54.3046875 C5.15400467 49.98871099 5.34501971 47.03901393 2.85546875 43.3046875 C-1.09646568 42.7827339 -3.35894735 42.84795267 -6.83203125 44.8671875 C-9.63221456 47.81873207 -11.27202839 50.6983857 -13.14453125 54.3046875 C-13.47453125 54.3046875 -13.80453125 54.3046875 -14.14453125 54.3046875 C-14.20060547 52.94923828 -14.20060547 52.94923828 -14.2578125 51.56640625 C-14.32355469 50.38691406 -14.38929688 49.20742187 -14.45703125 47.9921875 C-14.51503906 46.82042969 -14.57304687 45.64867187 -14.6328125 44.44140625 C-14.89717527 41.34383414 -14.89717527 41.34383414 -16.53515625 39.38671875 C-18.15845141 38.07802041 -18.15845141 38.07802041 -20.58203125 38.3046875 C-24.53050448 39.8455551 -26.33253577 42.61445947 -28.15014648 46.39794922 C-29.18473657 48.83290638 -30.17439698 51.28085074 -31.14453125 53.7421875 C-34.41644098 62.00503766 -37.40741628 69.24580464 -45.14453125 74.3046875 C-49.25623702 75.23365835 -52.34189681 74.77579902 -56.01953125 72.6171875 C-59.44092932 68.89390137 -60.14453125 66.34085225 -60.14453125 61.3046875 C-59.48066406 61.18351562 -58.81679687 61.06234375 -58.1328125 60.9375 C-51.38212929 59.85658673 -51.38212929 59.85658673 -45.14453125 57.3046875 C-43.83384792 54.86180122 -43.83384792 54.86180122 -43.14453125 52.3046875 C-42.64953125 51.3146875 -42.64953125 51.3146875 -42.14453125 50.3046875 C-41.65153823 45.94991579 -41.69170266 43.96334727 -44.20703125 40.3046875 C-47.02599367 37.99296894 -47.02599367 37.99296894 -50.58203125 38.2421875 C-55.21742211 39.62467249 -58.79847925 41.14934344 -61.45043945 45.39575195 C-63.15537788 48.77461753 -64.72992628 52.20038637 -66.26757812 55.65820312 C-67.42262818 58.0628579 -68.50238493 60.2009895 -70.14453125 62.3046875 C-73.8359375 63.51171875 -73.8359375 63.51171875 -77.14453125 63.3046875 C-79.69592867 60.75329008 -79.38271987 59.05473238 -79.41015625 55.5703125 C-78.84336129 50.73588489 -78.07141748 48.07460106 -74.23828125 44.890625 C-73.05255159 44.13419404 -71.85381222 43.39786727 -70.64453125 42.6796875 C-70.01595215 42.2892627 -69.38737305 41.89883789 -68.73974609 41.49658203 C-65.18539537 39.34295173 -61.68919794 37.59614026 -57.76953125 36.1796875 C-51.69110779 33.9811088 -47.66177999 29.95304295 -43.26953125 25.33203125 C-37.75820317 19.54751234 -37.75820317 19.54751234 -33.14453125 19.3046875 C-27.38259009 18.55724357 -23.83805959 15.68851118 -20.14453125 11.3046875 C-19.50682437 7.62015885 -19.97159323 5.82350156 -21.14453125 2.3046875 C-14.11807763 1.2116836 -7.07152213 0.68519096 0 0 Z " fill="#4E3F6B" transform="translate(215.14453125,203.6953125)"/>
<path d="M0 0 C0.02908357 3.41664873 0.04682691 6.8332655 0.0625 10.25 C0.07087891 11.21808594 0.07925781 12.18617188 0.08789062 13.18359375 C0.09111328 14.11816406 0.09433594 15.05273438 0.09765625 16.015625 C0.10289307 16.87446289 0.10812988 17.73330078 0.11352539 18.61816406 C0.00502488 20.89457469 -0.40359355 22.81007007 -1 25 C-1.06548492 26.58211573 -1.08578381 28.16670081 -1.0625 29.75 C-1.05347656 30.54921875 -1.04445313 31.3484375 -1.03515625 32.171875 C-1.02355469 32.77515625 -1.01195312 33.3784375 -1 34 C-0.34 34.33 0.32 34.66 1 35 C1.2784375 33.2675 1.2784375 33.2675 1.5625 31.5 C2.63127752 26.67127853 4.41709061 22.27182607 6.375 17.75 C6.66705322 17.06486328 6.95910645 16.37972656 7.26000977 15.67382812 C9.04570341 11.65000623 10.92682155 8.225316 14 5 C17.1875 4.125 17.1875 4.125 20 4 C20.495 4.495 20.495 4.495 21 5 C20.75807365 7.0390935 20.51602132 9.07817211 20.2734375 11.1171875 C19.95070541 14.51970587 19.780232 17.89568243 19.6875 21.3125 C19.65011719 22.48425781 19.61273438 23.65601563 19.57421875 24.86328125 C20.0843049 28.62107191 21.03535485 29.72328356 24 32 C26.1381966 32.7872678 26.1381966 32.7872678 28 33 C28.495 34.98 28.495 34.98 29 37 C29.969375 37.020625 30.93875 37.04125 31.9375 37.0625 C36.57460735 37.67388332 39.3698488 40.39437945 42.7890625 43.40625 C45.23260775 45.16767484 47.03917908 45.62600157 50 46 C51 50.75 51 50.75 51 53 C54.32663624 54.60734575 54.32663624 54.60734575 57.9375 54.8125 C60.720303 53.71624427 63.35082511 52.38479596 66 51 C70.92307692 56.29230769 70.92307692 56.29230769 71.3125 59.875 C71.1578125 60.926875 71.1578125 60.926875 71 62 C66.900639 62.9327418 62.87956712 63.28825262 58.6875 63.5625 C57.43324219 63.64628906 56.17898437 63.73007812 54.88671875 63.81640625 C53.93410156 63.87699219 52.98148438 63.93757813 52 64 C51.66226563 63.43410156 51.32453125 62.86820312 50.9765625 62.28515625 C50.53054687 61.55167969 50.08453125 60.81820312 49.625 60.0625 C48.96371094 58.96615234 48.96371094 58.96615234 48.2890625 57.84765625 C47.1226016 55.86227728 47.1226016 55.86227728 45 55 C41.40251332 54.76754701 37.8115009 54.60499713 34.20898438 54.48242188 C30.3513764 54.30632091 28.27712193 54.18474795 25 52 C22.98341096 51.58483202 22.98341096 51.58483202 20.875 51.4375 C17 51 17 51 16 50 C10.8238097 50.36747494 10.8238097 50.36747494 6 52 C3.6670134 52.04022391 1.33293334 52.04320247 -1 52 C-1 52.66 -1 53.32 -1 54 C-4.48668432 53.00380448 -7.02001499 51.98582272 -10 49.875 C-13.48206906 47.69870684 -14.97062497 47.50660714 -19 48 C-20.05791748 48.33298096 -21.11583496 48.66596191 -22.20581055 49.0090332 C-26.14772675 50.03858329 -29.73270875 50.27336474 -33.76953125 50.23046875 C-34.49057541 50.23001053 -35.21161957 50.22955231 -35.95451355 50.2290802 C-37.47140154 50.22607727 -38.988287 50.21825028 -40.50512695 50.20581055 C-42.79585021 50.18763213 -45.0861654 50.18530084 -47.37695312 50.18554688 C-70.80234325 50.13396067 -70.80234325 50.13396067 -78 43 C-80.0732751 40.70952465 -81.43876484 38.71957092 -83 36 C-82.62109375 33.7890625 -82.62109375 33.7890625 -82 32 C-81.443125 32.680625 -80.88625 33.36125 -80.3125 34.0625 C-78.19689518 36.21543036 -78.19689518 36.21543036 -75.625 36.1875 C-69.40486987 33.37363161 -66.08147728 26.80739949 -63 21 C-62.34 22.32 -61.68 23.64 -61 25 C-54.63922041 25.52801764 -54.63922041 25.52801764 -48.9375 23 C-47.9784375 22.01 -47.9784375 22.01 -47 21 C-46.75765625 21.67546875 -46.5153125 22.3509375 -46.265625 23.046875 C-43.3803171 30.90570421 -43.3803171 30.90570421 -37 36 C-31.61377864 36.60065723 -26.29236942 36.71827752 -21.64453125 33.55078125 C-14.71538872 27.01664922 -11.522614 17.87190002 -8.39648438 9.10693359 C-8.12642578 8.36008301 -7.85636719 7.61323242 -7.578125 6.84375 C-7.34512695 6.17537109 -7.11212891 5.50699219 -6.87207031 4.81835938 C-5.18647387 1.30371148 -3.95928543 0 0 0 Z " fill="#4E3E6B" transform="translate(196,244)"/>
<path d="M0 0 C2.3671875 0.296875 2.3671875 0.296875 3.3671875 1.296875 C4.16050589 8.71135071 2.61136067 15.27047566 0.3671875 22.296875 C6.72169073 21.04985349 13.05046185 19.72323241 19.3671875 18.296875 C18.6875 20.19140625 18.6875 20.19140625 17.3671875 22.296875 C15.046875 23.30859375 15.046875 23.30859375 12.2421875 23.984375 C11.25734375 24.23574219 10.2725 24.48710937 9.2578125 24.74609375 C6.71967541 25.22971176 4.55632326 25.32134194 1.9921875 25.296875 C-1.69815944 25.91134767 -1.69815944 25.91134767 -3.234375 28.484375 C-7.75790469 37.58197661 -7.5964055 45.729226 -4.6328125 55.296875 C-3.81155623 57.48192635 -3.81155623 57.48192635 -2.6328125 59.296875 C0.17576498 60.55697843 0.17576498 60.55697843 3.3671875 60.296875 C8.02512349 56.54095201 9.99683402 52.37645678 12.1796875 46.984375 C12.64665039 45.87352539 12.64665039 45.87352539 13.12304688 44.74023438 C13.88203818 42.93033204 14.6261605 41.11420635 15.3671875 39.296875 C16.0271875 39.296875 16.6871875 39.296875 17.3671875 39.296875 C16.98685701 47.66414578 13.02610665 56.22054481 6.9921875 62.046875 C4.4590933 63.92988308 2.39052173 64.76281477 -0.7578125 65.046875 C-4.68384022 64.28699867 -6.2788379 63.5612447 -8.6015625 60.296875 C-10.56127938 56.49621196 -11.62659014 52.43629381 -12.6328125 48.296875 C-12.99632812 49.04453125 -13.35984375 49.7921875 -13.734375 50.5625 C-19.04677759 60.96936045 -19.04677759 60.96936045 -24.6328125 63.296875 C-28.08927141 63.296875 -29.81336316 63.10861188 -32.29296875 60.65234375 C-34.0874794 57.49756263 -33.96228646 55.2214666 -33.8828125 51.609375 C-33.85703125 50.37574219 -33.83125 49.14210938 -33.8046875 47.87109375 C-33.60100173 43.63535553 -33.21212803 39.49691259 -32.6328125 35.296875 C-35.4345492 35.00516592 -35.4345492 35.00516592 -38.6328125 36.296875 C-45.58678574 43.88966468 -48.33400462 55.74180881 -51.6328125 65.296875 C-53.1178125 64.801875 -53.1178125 64.801875 -54.6328125 64.296875 C-54.660054 62.88031707 -54.67931717 61.46360455 -54.6953125 60.046875 C-54.70691406 59.25796875 -54.71851563 58.4690625 -54.73046875 57.65625 C-54.6328125 55.296875 -54.6328125 55.296875 -54.14648438 53.4609375 C-53.57282924 51.04416985 -53.42230841 48.79363629 -53.31640625 46.3125 C-53.27451172 45.37792969 -53.23261719 44.44335938 -53.18945312 43.48046875 C-53.15013672 42.51238281 -53.11082031 41.54429687 -53.0703125 40.546875 C-53.00553711 39.07154297 -53.00553711 39.07154297 -52.93945312 37.56640625 C-52.83359198 35.14336225 -52.73151079 32.7202196 -52.6328125 30.296875 C-55.45421992 31.4244617 -57.22981682 32.54392911 -58.68261719 35.25830078 C-59.68871677 37.77250715 -60.60954664 40.30467818 -61.5078125 42.859375 C-68.19024248 60.59479419 -68.19024248 60.59479419 -75.9453125 65.921875 C-81.96506553 68.16652867 -87.05936972 68.392971 -93.0078125 65.859375 C-96.50830002 62.44223242 -97.9319402 58.81508963 -99.6328125 54.296875 C-99.9628125 53.636875 -100.2928125 52.976875 -100.6328125 52.296875 C-101.1484375 52.956875 -101.6640625 53.616875 -102.1953125 54.296875 C-104.6328125 56.296875 -104.6328125 56.296875 -108.1328125 56.796875 C-112.08900241 56.23170501 -113.21791057 55.38794947 -115.6328125 52.296875 C-115.92414063 52.87695312 -116.21546875 53.45703125 -116.515625 54.0546875 C-119.29028428 59.34224576 -121.87813235 63.60957203 -126.6328125 67.296875 C-129.6953125 67.671875 -129.6953125 67.671875 -132.6328125 66.296875 C-135.89063323 63.58629975 -137.37570053 60.46292691 -137.87548828 56.25244141 C-138.32696878 48.69702043 -138.46491369 41.41693663 -135.6328125 34.296875 C-134.6428125 34.296875 -133.6528125 34.296875 -132.6328125 34.296875 C-132.61299316 34.89113281 -132.59317383 35.48539063 -132.57275391 36.09765625 C-132.47657257 38.83111919 -132.36727693 41.56391303 -132.2578125 44.296875 C-132.226875 45.23144531 -132.1959375 46.16601562 -132.1640625 47.12890625 C-131.9262559 52.79663028 -131.21411202 57.84589128 -129.6328125 63.296875 C-126.37251084 62.66804838 -126.37251084 62.66804838 -124 60.37109375 C-123.50757812 59.58347656 -123.01515625 58.79585938 -122.5078125 57.984375 C-121.76144531 56.81455078 -121.76144531 56.81455078 -121 55.62109375 C-120.54882812 54.85410156 -120.09765625 54.08710938 -119.6328125 53.296875 C-119.25253906 52.68328125 -118.87226563 52.0696875 -118.48046875 51.4375 C-116.88386205 47.40551626 -117.21641358 42.99581074 -117.07421875 38.70703125 C-116.6053899 35.08501722 -115.96670989 33.09861515 -113.6328125 30.296875 C-112.3128125 30.296875 -110.9928125 30.296875 -109.6328125 30.296875 C-109.48846955 33.90544872 -109.46185112 36.79467595 -110.6328125 40.234375 C-111.91195205 44.15173987 -111.8417917 47.18695082 -111.6328125 51.296875 C-110.44856924 52.71264977 -110.44856924 52.71264977 -107.0703125 52.359375 C-105.36875 52.3284375 -105.36875 52.3284375 -103.6328125 52.296875 C-103.36597656 51.61496094 -103.09914062 50.93304688 -102.82421875 50.23046875 C-95.56583246 32.35817988 -95.56583246 32.35817988 -87.83984375 28.09375 C-84.31203208 26.81999145 -82.12214787 26.99692653 -78.6328125 28.296875 C-75.53035929 31.0015778 -74.73623474 32.59877486 -74.1328125 36.671875 C-74.71831435 40.91676343 -75.80215226 44.0935508 -78.6328125 47.296875 C-83.44606125 50.84677647 -87.75470169 51.78671757 -93.6328125 51.296875 C-92.06402344 57.20504726 -92.06402344 57.20504726 -88.9453125 62.359375 C-85.40902044 63.79300692 -82.32214987 64.09980771 -78.6328125 63.296875 C-70.17555471 59.25441216 -67.50196644 49.06182266 -64.32421875 40.9609375 C-60.10569836 30.31607295 -60.10569836 30.31607295 -55.6328125 27.296875 C-52.73536608 27.296875 -51.33009377 27.77264164 -49.02734375 29.50390625 C-47.10913476 31.97017495 -47.12709441 33.89408252 -46.9453125 36.984375 C-46.87957031 37.97824219 -46.81382812 38.97210938 -46.74609375 39.99609375 C-46.69001953 41.13498047 -46.69001953 41.13498047 -46.6328125 42.296875 C-46.23449219 41.74257812 -45.83617187 41.18828125 -45.42578125 40.6171875 C-44.89597656 39.89273438 -44.36617188 39.16828125 -43.8203125 38.421875 C-43.29824219 37.70257813 -42.77617187 36.98328125 -42.23828125 36.2421875 C-39.72586841 33.19795005 -38.06463228 32.34314141 -34.1328125 31.921875 C-30.6328125 32.296875 -30.6328125 32.296875 -28.6953125 33.796875 C-26.50727032 38.94520955 -27.57593763 44.01250066 -28.6328125 49.296875 C-28.7663395 51.98795763 -28.72279546 54.59738628 -28.6328125 57.296875 C-27.58938469 58.53523666 -27.58938469 58.53523666 -25.3203125 58.671875 C-22.44784168 58.56223224 -22.44784168 58.56223224 -20.62890625 56.10546875 C-13.96193542 46.72474071 -12.58035541 36.44111106 -11.6328125 25.296875 C-13.60221354 25.08732096 -15.57161458 24.87776693 -17.54101562 24.66821289 C-20.55888644 24.13247742 -22.99564917 22.81324391 -25.6328125 21.296875 C-25.1378125 19.811875 -25.1378125 19.811875 -24.6328125 18.296875 C-23.00520833 19.078125 -21.37760417 19.859375 -19.75 20.640625 C-16.99654043 21.49409586 -14.49713088 21.3942456 -11.6328125 21.296875 C-11.48585938 20.53503906 -11.33890625 19.77320313 -11.1875 18.98828125 C-7.24004691 0.81638511 -7.24004691 0.81638511 0 0 Z " fill="#E6E5E9" transform="translate(248.6328125,213.703125)"/>
<path d="M0 0 C0.99 0.33 1.98 0.66 3 1 C2.95359375 1.72445312 2.9071875 2.44890625 2.859375 3.1953125 C2.56693972 11.02840027 3.84731048 14.38403359 9.046875 20.34765625 C14.341052 26.87150912 15.83055104 31.11708314 15.28125 39.54296875 C15.1884375 40.35378906 15.095625 41.16460937 15 42 C19.57162117 35.97148857 22.64743356 29.64869649 25.46313477 22.67382812 C28.01631446 16.48521639 31.10243476 11.84748079 37.1328125 8.6640625 C40.39055689 7.50545048 42.75742744 8.02111017 46 9 C48.4375 10.5625 48.4375 10.5625 50 13 C50.87448896 18.82992639 49.92072896 22.46894073 46.55078125 27.30078125 C43.01122302 31.1791385 39.12748299 31.94631033 34.0625 32.1875 C33.051875 32.125625 32.04125 32.06375 31 32 C32.56878906 37.90817226 32.56878906 37.90817226 35.6875 43.0625 C39.22379206 44.49613192 42.31066263 44.80293271 46 44 C54.91051697 39.74088497 57.62488715 28.50908734 61 20 C61.99 20 62.98 20 64 20 C61.06677958 29.8727907 57.38013719 40.01869848 48.875 46.3125 C44.38851717 48.67634579 39.94666216 48.77803461 35 48 C28.96165434 45.37958585 26.74321265 40.68063505 24 35 C23.34644531 35.90492188 23.34644531 35.90492188 22.6796875 36.828125 C16.05287225 45.72125369 16.05287225 45.72125369 11 48 C6.54100275 48.60965622 2.62993045 48.99177124 -1.3046875 46.59765625 C-1.86414063 46.07042969 -2.42359375 45.54320312 -3 45 C-3 44.34 -3 43.68 -3 43 C-2.38511719 43.11859375 -1.77023437 43.2371875 -1.13671875 43.359375 C-0.32847656 43.48828125 0.47976563 43.6171875 1.3125 43.75 C2.11300781 43.88921875 2.91351563 44.0284375 3.73828125 44.171875 C6.12829756 44.22995172 6.12829756 44.22995172 7.75390625 42.33203125 C10.07655009 37.98526519 9.88416572 33.77081089 9 29 C5.68858238 21.94342019 5.68858238 21.94342019 0 17 C-0.14695312 17.58265625 -0.29390625 18.1653125 -0.4453125 18.765625 C-2.85149748 27.56064596 -6.21893485 38.55325439 -14 44 C-17.125 44.5 -17.125 44.5 -20 44 C-22.55949546 42.14657225 -22.97918798 41.06243607 -24 38 C-24.598125 38.78375 -25.19625 39.5675 -25.8125 40.375 C-28.17698043 43.21237652 -29.80078025 44.78726557 -33.48828125 45.44140625 C-40.97106877 45.762245 -40.97106877 45.762245 -44.01953125 43.50390625 C-48.58923197 38.155911 -49.41528173 34.23724908 -49.33984375 27.23828125 C-48.51976578 19.42397503 -44.28229366 13.69384334 -38.74609375 8.375 C-34.63774239 5.13978819 -31.27008681 4.54741931 -26.12890625 4.69140625 C-24 5 -24 5 -21.4375 6.5625 C-19.41883457 9.98545442 -19.4593245 12.08010266 -20 16 C-21.86128154 19.65362673 -23.06353823 21.53176912 -26.75 23.375 C-27.4925 23.58125 -28.235 23.7875 -29 24 C-29 23.01 -29 22.02 -29 21 C-28.175 20.443125 -27.35 19.88625 -26.5 19.3125 C-23.83909928 17.3268113 -23.83909928 17.3268113 -23.66796875 14.96484375 C-23.68552855 12.9735619 -23.83462661 10.98448063 -24 9 C-27.23790528 8.07488421 -29.76583581 7.37523639 -32.8828125 8.953125 C-37.65618238 12.71396187 -40.52344968 17.11127267 -42 23 C-42.67146082 28.77317862 -43.34436072 34.77207062 -40 39.8125 C-39.34 40.534375 -38.68 41.25625 -38 42 C-32.77039296 41.71968538 -32.77039296 41.71968538 -28.6875 38.6875 C-25.82798639 34.13345981 -24.54136626 30.28484365 -23.5625 25.0234375 C-23 23 -23 23 -21 21 C-20.34 21.33 -19.68 21.66 -19 22 C-19.01160156 23.13179688 -19.02320313 24.26359375 -19.03515625 25.4296875 C-19.04453454 26.91145669 -19.0536347 28.39322765 -19.0625 29.875 C-19.07087891 30.62136719 -19.07925781 31.36773437 -19.08789062 32.13671875 C-19.20688084 36.19845578 -19.20688084 36.19845578 -18 40 C-15.60755034 40.01130721 -15.60755034 40.01130721 -13 39 C-11.51918016 36.77272608 -10.44867468 34.84855351 -9.375 32.4375 C-9.07650146 31.79562744 -8.77800293 31.15375488 -8.47045898 30.49243164 C-7.63100561 28.66888701 -6.81475697 26.83471199 -6 25 C-5.63261719 24.2575 -5.26523437 23.515 -4.88671875 22.75 C-2.52584528 17.55831616 -2.86755732 12.5787837 -3.1875 6.953125 C-2.97639952 3.62829244 -2.23686769 2.39997262 0 0 Z " fill="#E7E6EA" transform="translate(414,233)"/>
<path d="M0 0 C2.11705667 1.83053772 3.39291145 3.66241665 5 6 C5.556875 5.319375 6.11375 4.63875 6.6875 3.9375 C9 2 9 2 11.625 2 C14 3 14 3 15.3125 5.0625 C15.6528125 6.0215625 15.6528125 6.0215625 16 7 C16.66 7 17.32 7 18 7 C18 7.66 18 8.32 18 9 C17.34 9 16.68 9 16 9 C16.82778087 11.23003121 16.82778087 11.23003121 19.25 11.8125 C22.63447036 13.27397584 24.47762218 15.34486546 27 18 C27.99 18.66 28.98 19.32 30 20 C29.34 21.98 28.68 23.96 28 26 C26.58249437 25.88490339 25.16598831 25.75746342 23.75 25.625 C22.96109375 25.55539063 22.1721875 25.48578125 21.359375 25.4140625 C18.914123 24.98492887 17.15163097 24.21399362 15 23 C14.67 23.66 14.34 24.32 14 25 C20.88824069 27.40990104 20.88824069 27.40990104 28 29 C28.38228684 40.85089189 26.34626567 52.42333588 18.46875 61.828125 C17 63 17 63 14.4375 63.3125 C12 63 12 63 10 61 C9.77293525 56.38301675 10.09695853 52.51520733 11 48 C11.29853592 43.68402349 11.48955096 40.73432643 9 37 C5.04806557 36.4780464 2.7855839 36.54326517 -0.6875 38.5625 C-3.48768331 41.51404457 -5.12749714 44.3936982 -7 48 C-7.33 48 -7.66 48 -8 48 C-8.02701408 45.89590361 -8.04640223 43.79170822 -8.0625 41.6875 C-8.07410156 40.51574219 -8.08570313 39.34398437 -8.09765625 38.13671875 C-8 35 -8 35 -7 32 C-8.32 31.34 -9.64 30.68 -11 30 C-10.3503125 29.00419922 -10.3503125 29.00419922 -9.6875 27.98828125 C-9.130625 27.10527344 -8.57375 26.22226563 -8 25.3125 C-7.443125 24.44238281 -6.88625 23.57226562 -6.3125 22.67578125 C-4.87564588 19.74648044 -4.40938025 18.20622151 -5 15 C-6.71747493 13.10862297 -6.71747493 13.10862297 -9 11.6875 C-9.7425 11.17574219 -10.485 10.66398438 -11.25 10.13671875 C-11.8275 9.76160156 -12.405 9.38648438 -13 9 C-12.6375 3.5625 -12.6375 3.5625 -9.875 1.125 C-6.20820188 -0.30983405 -3.90517756 -0.62761782 0 0 Z " fill="#5E537A" transform="translate(209,210)"/>
<path d="M0 0 C3.96794067 2.78553787 5.60624696 5.90858464 7.13671875 10.5 C7.2041274 12.06118428 7.22186331 13.6250252 7.19921875 15.1875 C7.19019531 15.99574219 7.18117187 16.80398437 7.171875 17.63671875 C7.16027344 18.25160156 7.14867187 18.86648437 7.13671875 19.5 C6.14671875 19.5 5.15671875 19.5 4.13671875 19.5 C4.03875 18.69175781 3.94078125 17.88351563 3.83984375 17.05078125 C2.91783664 8.86542154 2.91783664 8.86542154 -1.86328125 2.5 C-7.14062915 -0.20303185 -13.06771842 -0.053606 -18.86328125 0.5 C-24.10402411 2.34396508 -28.05734651 5.55513081 -30.984375 10.328125 C-32.04274532 12.94347566 -32.16382398 14.99457066 -32.17578125 17.8125 C-32.19253906 18.71613281 -32.20929687 19.61976563 -32.2265625 20.55078125 C-31.76252217 24.31799039 -30.47768656 27.07098607 -28.86328125 30.5 C-27.6825 30.46519531 -26.50171875 30.43039063 -25.28515625 30.39453125 C-23.72787883 30.36638768 -22.170586 30.33908813 -20.61328125 30.3125 C-19.44732422 30.27479492 -19.44732422 30.27479492 -18.2578125 30.23632812 C-12.4333095 30.16165501 -12.4333095 30.16165501 -9.31640625 32.01171875 C-8.836875 32.50285156 -8.35734375 32.99398437 -7.86328125 33.5 C-8.23828125 35.9375 -8.23828125 35.9375 -8.86328125 38.5 C-11.80463665 39.9706777 -14.4655553 39.67048999 -17.73828125 39.6875 C-18.97320312 39.70167969 -20.208125 39.71585938 -21.48046875 39.73046875 C-24.67500728 39.51282698 -26.1623427 39.0486194 -28.86328125 37.5 C-33.0797627 37.40630041 -35.38947908 38.62252607 -38.42578125 41.375 C-43.97996095 47.43522718 -47.09666193 54.32790999 -47.48828125 62.5625 C-47.15669683 69.84788334 -44.57019389 75.72185282 -39.48828125 80.9375 C-33.40399556 84.55909863 -28.62976631 86.03798615 -21.61328125 85.9375 C-20.86965332 85.92992676 -20.12602539 85.92235352 -19.35986328 85.91455078 C-10.79851608 85.66051037 -2.78567453 83.48388689 3.5703125 77.46484375 C8.36680388 71.4482972 11.78557622 64.22513573 12.13671875 56.5 C13.12671875 56.5 14.11671875 56.5 15.13671875 56.5 C14.75990812 66.29707639 10.54233835 74.64463082 3.51171875 81.4375 C-7.02976638 90.23804289 -19.36787573 92.57132285 -32.71728516 91.76513672 C-39.95679566 90.8706989 -46.0166703 87.08867259 -50.48828125 81.4375 C-55.17278531 74.49591671 -56.01710179 67.72762797 -54.86328125 59.5 C-50.95961259 48.5166009 -44.8306482 40.57766277 -34.86328125 34.5 C-35.15203125 33.943125 -35.44078125 33.38625 -35.73828125 32.8125 C-39.21508658 25.6657335 -40.49593831 18.71499195 -38.05859375 10.9296875 C-34.51088566 3.71193656 -28.72946567 0.04647377 -21.42578125 -2.875 C-13.2925495 -4.30188276 -7.35288673 -4.06313364 0 0 Z " fill="#E8E8EB" transform="translate(89.86328125,199.5)"/>
<path d="M0 0 C2.97111275 2.60397296 4.73908452 5.21725355 6 9 C6.06740865 10.56118428 6.08514456 12.1250252 6.0625 13.6875 C6.05347656 14.49574219 6.04445313 15.30398437 6.03515625 16.13671875 C6.02355469 16.75160156 6.01195312 17.36648437 6 18 C5.34 18 4.68 18 4 18 C3.91363281 17.34773438 3.82726562 16.69546875 3.73828125 16.0234375 C2.74632592 9.85329334 1.5533442 6.33651829 -3 2 C-8.20191537 -1.22076037 -14.44501323 -0.66845905 -20.28515625 0.4296875 C-25.64871998 2.10386346 -28.94314609 5.34596636 -32 10 C-32.94697533 12.84092599 -33.19486266 14.79096293 -33.25 17.75 C-33.27578125 18.56984375 -33.3015625 19.3896875 -33.328125 20.234375 C-32.89187475 23.91134138 -31.56779361 26.6498726 -30 30 C-28.73542969 29.97679687 -27.47085937 29.95359375 -26.16796875 29.9296875 C-24.5078184 29.91092874 -22.84766167 29.89272865 -21.1875 29.875 C-20.35412109 29.85824219 -19.52074219 29.84148437 -18.66210938 29.82421875 C-17.85966797 29.81777344 -17.05722656 29.81132812 -16.23046875 29.8046875 C-15.49207764 29.79421387 -14.75368652 29.78374023 -13.99291992 29.77294922 C-12 30 -12 30 -9 32 C-8.625 34.5 -8.625 34.5 -9 37 C-12.66755999 39.44503999 -14.57478137 39.26831152 -18.9375 39.25 C-20.16339844 39.25515625 -21.38929688 39.2603125 -22.65234375 39.265625 C-25.79268138 39.01645002 -27.33995578 38.53745675 -30 37 C-34.40316595 37 -37.18095768 39.21081951 -40.28515625 42.09765625 C-46.22639085 48.68850192 -47.70463811 55.52551209 -47.51708984 64.23339844 C-47.22837132 69.56769578 -46.67874737 73.98062788 -43 78 C-33.95528339 85.39577008 -25.66075281 85.87578374 -14.35400391 85.26513672 C-7.00690761 84.43761685 -1.08032476 80.48888132 4 75.3125 C8.44055555 69.69140651 10.36108317 62.87702357 12 56 C12.66 56 13.32 56 14 56 C13.50115943 66.30937171 9.89852669 74.10165625 2.3046875 81.1796875 C-9.09583532 90.18416824 -20.90428126 92.11023109 -35 91 C-42.16469384 89.4481143 -47.70229436 85.9620691 -52 80 C-56.09691041 72.76658252 -57.44683278 65.55618032 -55.33984375 57.46484375 C-51.46672641 46.61676184 -44.08821821 39.71101828 -35 33 C-35.3609375 32.56171875 -35.721875 32.1234375 -36.09375 31.671875 C-39.87659405 26.50198814 -40.77774778 22.2778848 -40.48046875 15.8984375 C-39.36616004 9.17634758 -35.17379339 4.40726661 -29.9453125 0.25390625 C-20.44562013 -5.86938943 -9.66394316 -5.51502515 0 0 Z " fill="#EAE9EC" transform="translate(346,200)"/>
<path d="M0 0 C3.10245321 2.7047028 3.89657776 4.30189986 4.5 8.375 C3.91449815 12.61988843 2.83066024 15.7966758 0 19 C-4.81324875 22.54990147 -9.12188919 23.48984257 -15 23 C-13.43121094 28.90817226 -13.43121094 28.90817226 -10.3125 34.0625 C-6.77620794 35.49613192 -3.68933737 35.80293271 0 35 C8.45725779 30.95753716 11.13084606 20.76494766 14.30859375 12.6640625 C18.4848351 2.12588339 18.4848351 2.12588339 23 -1 C25.3125 -0.8125 25.3125 -0.8125 27 0 C26.09121094 0.62519531 25.18242187 1.25039062 24.24609375 1.89453125 C20.08257612 5.36921815 18.80630315 9.6875198 17.0625 14.6875 C10.45132999 32.29190183 10.45132999 32.29190183 2.6875 37.625 C-3.33225303 39.86965367 -8.42655722 40.096096 -14.375 37.5625 C-17.87548752 34.14535742 -19.2991277 30.51821463 -21 26 C-21.495 25.01 -21.495 25.01 -22 24 C-22.515625 24.66 -23.03125 25.32 -23.5625 26 C-26 28 -26 28 -29.5 28.5 C-33.45618991 27.93483001 -34.58509807 27.09107447 -37 24 C-37.29132813 24.58007812 -37.58265625 25.16015625 -37.8828125 25.7578125 C-40.65747178 31.04537076 -43.24531985 35.31269703 -48 39 C-51.0625 39.375 -51.0625 39.375 -54 38 C-57.25782073 35.28942475 -58.74288803 32.16605191 -59.24267578 27.95556641 C-59.69415628 20.40014543 -59.83210119 13.12006163 -57 6 C-56.01 6 -55.02 6 -54 6 C-53.98018066 6.59425781 -53.96036133 7.18851563 -53.93994141 7.80078125 C-53.84376007 10.53424419 -53.73446443 13.26703803 -53.625 16 C-53.5940625 16.93457031 -53.563125 17.86914062 -53.53125 18.83203125 C-53.2934434 24.49975528 -52.58129952 29.54901628 -51 35 C-47.73969834 34.37117338 -47.73969834 34.37117338 -45.3671875 32.07421875 C-44.87476562 31.28660156 -44.38234375 30.49898438 -43.875 29.6875 C-43.37742187 28.90761719 -42.87984375 28.12773437 -42.3671875 27.32421875 C-41.91601562 26.55722656 -41.46484375 25.79023438 -41 25 C-40.61972656 24.38640625 -40.23945313 23.7728125 -39.84765625 23.140625 C-38.25104955 19.10864126 -38.58360108 14.69893574 -38.44140625 10.41015625 C-37.9725774 6.78814222 -37.33389739 4.80174015 -35 2 C-33.68 2 -32.36 2 -31 2 C-30.85565705 5.60857372 -30.82903862 8.49780095 -32 11.9375 C-33.27913955 15.85486487 -33.2089792 18.89007582 -33 23 C-31.81575674 24.41577477 -31.81575674 24.41577477 -28.4375 24.0625 C-26.7359375 24.0315625 -26.7359375 24.0315625 -25 24 C-24.73316406 23.31808594 -24.46632812 22.63617188 -24.19140625 21.93359375 C-16.93301996 4.06130488 -16.93301996 4.06130488 -9.20703125 -0.203125 C-5.67921958 -1.47688355 -3.48933537 -1.29994847 0 0 Z " fill="#E6E5E9" transform="translate(170,242)"/>
<path d="M0 0 C2.4375 1.5625 2.4375 1.5625 4 4 C4.87448896 9.82992639 3.92072896 13.46894073 0.55078125 18.30078125 C-2.98877698 22.1791385 -6.87251701 22.94631033 -11.9375 23.1875 C-12.948125 23.125625 -13.95875 23.06375 -15 23 C-13.43121094 28.90817226 -13.43121094 28.90817226 -10.3125 34.0625 C-6.77620794 35.49613192 -3.68933737 35.80293271 0 35 C8.91051697 30.74088497 11.62488715 19.50908734 15 11 C15.99 11 16.98 11 18 11 C15.06677958 20.8727907 11.38013719 31.01869848 2.875 37.3125 C-1.61148283 39.67634579 -6.05333784 39.77803461 -11 39 C-17.03834566 36.37958585 -19.25678735 31.68063505 -22 26 C-22.45890625 26.62648438 -22.9178125 27.25296875 -23.390625 27.8984375 C-24.00421875 28.71570313 -24.6178125 29.53296875 -25.25 30.375 C-26.15492188 31.59316406 -26.15492188 31.59316406 -27.078125 32.8359375 C-28.97181904 34.96826778 -30.38328518 35.94636704 -33 37 C-33 35.68 -33 34.36 -33 33 C-31.515 32.505 -31.515 32.505 -30 32 C-25.19907444 25.82738143 -22.35028418 18.40905022 -19.4921875 11.19921875 C-17.02821212 5.91650714 -13.98802022 2.36733471 -8.8671875 -0.3359375 C-5.60944311 -1.49454952 -3.24257256 -0.97888983 0 0 Z " fill="#E6E6E9" transform="translate(460,242)"/>
<path d="M0 0 C0.33 0 0.66 0 1 0 C1.25523437 1.21236328 1.25523437 1.21236328 1.515625 2.44921875 C3.05391823 10.67488582 3.05391823 10.67488582 8 17 C11.89896961 17.62886607 14.33969672 17.9575872 17.78125 15.97265625 C20.35522017 13.89707736 22.16749132 11.74876302 24 9 C25.32 9.66 26.64 10.32 28 11 C27.57221837 13.99447142 27.10188121 15.8510967 25.375 18.375 C23.4498313 22.05032206 23.87259267 24.05407433 25 28 C25.845625 28.845625 26.69125 29.69125 27.5625 30.5625 C30 33 30 33 30.3125 36.3125 C30.209375 37.199375 30.10625 38.08625 30 39 C28 39 28 39 26.375 37.5 C25.92125 37.005 25.4675 36.51 25 36 C24.113125 36.680625 23.22625 37.36125 22.3125 38.0625 C19 40 19 40 16.3125 39.875 C14 39 14 39 11 37 C11 36.34 11 35.68 11 35 C10.34 34.67 9.68 34.34 9 34 C9.66 34 10.32 34 11 34 C10.36020151 31.96758273 10.36020151 31.96758273 9 30 C8.29875 29.87625 7.5975 29.7525 6.875 29.625 C3.7433438 28.94420517 2.58406919 28.04023975 0.125 26.0625 C-3.53055112 23.16446803 -6.45553917 21.94676267 -11 21 C-11.33 19.35 -11.66 17.7 -12 16 C-11.25363281 15.64292969 -10.50726563 15.28585937 -9.73828125 14.91796875 C-6.2782301 12.49445218 -5.08192001 10.06419454 -3.1875 6.3125 C-2.72053711 5.40274414 -2.72053711 5.40274414 -2.24414062 4.47460938 C-1.48391416 2.98924381 -0.74024538 1.49542366 0 0 Z " fill="#5E537A" transform="translate(236,260)"/>
<path d="M0 0 C1.2684375 1.1446875 1.2684375 1.1446875 2.5625 2.3125 C3.34625 3.01375 4.13 3.715 4.9375 4.4375 C6.5625 7.3125 6.5625 7.3125 6.5625 17.3125 C-5.6475 17.6425 -17.8575 17.9725 -30.4375 18.3125 C-29.43242981 9.26686831 -28.97414029 6.71950731 -22.4375 1.3125 C-15.85614825 -2.81643226 -6.91862259 -3.39641473 0 0 Z " fill="#0F073C" transform="translate(342.4375,200.6875)"/>
<path d="M0 0 C1 1 1 1 1.3125 4.8125 C1.28346793 8.04667254 1.1489442 8.80140774 -0.875 11.5 C-3 13 -3 13 -5 13 C-5 13.99 -5 14.98 -5 16 C-4.21625 15.505 -3.4325 15.01 -2.625 14.5 C0 13 0 13 2 13 C-0.95429314 28.08479981 -0.95429314 28.08479981 -6.9375 33.875 C-9.60865385 35.33199301 -11.0041962 35.59916076 -14 35 C-19.09741051 29.61940002 -19.4117001 25.69039902 -19.33984375 18.46484375 C-18.65921771 11.5255875 -15.55526327 6.16485843 -10.625 1.3125 C-7.00129627 -1.51653186 -4.4113934 -1.32341802 0 0 Z " fill="#0F083D" transform="translate(390,241)"/>
<path d="M0 0 C0.81786831 6.21579913 -1.65017538 10.94012504 -5 16 C-7.73553538 19.09004384 -10.65590575 21.58914135 -14 24 C-14.63164062 24.45632813 -15.26328125 24.91265625 -15.9140625 25.3828125 C-23.38572553 29.6395767 -33.66261009 28.75994565 -42 28 C-42.99 27.67 -43.98 27.34 -45 27 C-45 26.34 -45 25.68 -45 25 C-37.66505306 18.30642361 -30.51224453 13.92373522 -21 11 C-14.11838743 8.46973787 -8.11584585 5.81364556 -2.42578125 1.13671875 C-1 0 -1 0 0 0 Z " fill="#0E073C" transform="translate(357,258)"/>
<path d="M0 0 C3.96794067 2.78553787 5.60624696 5.90858464 7.13671875 10.5 C7.2041274 12.06118428 7.22186331 13.6250252 7.19921875 15.1875 C7.19019531 15.99574219 7.18117187 16.80398437 7.171875 17.63671875 C7.16027344 18.25160156 7.14867187 18.86648437 7.13671875 19.5 C6.14671875 19.5 5.15671875 19.5 4.13671875 19.5 C4.03875 18.69175781 3.94078125 17.88351563 3.83984375 17.05078125 C2.91783664 8.86542154 2.91783664 8.86542154 -1.86328125 2.5 C-7.14062915 -0.20303185 -13.06771842 -0.053606 -18.86328125 0.5 C-24.10402411 2.34396508 -28.05734651 5.55513081 -30.984375 10.328125 C-32.04274532 12.94347566 -32.16382398 14.99457066 -32.17578125 17.8125 C-32.19253906 18.71613281 -32.20929687 19.61976563 -32.2265625 20.55078125 C-31.76252217 24.31799039 -30.47768656 27.07098607 -28.86328125 30.5 C-27.6825 30.46519531 -26.50171875 30.43039063 -25.28515625 30.39453125 C-23.72787883 30.36638768 -22.170586 30.33908813 -20.61328125 30.3125 C-19.44732422 30.27479492 -19.44732422 30.27479492 -18.2578125 30.23632812 C-12.4333095 30.16165501 -12.4333095 30.16165501 -9.31640625 32.01171875 C-8.836875 32.50285156 -8.35734375 32.99398437 -7.86328125 33.5 C-8.23828125 35.9375 -8.23828125 35.9375 -8.86328125 38.5 C-11.80463665 39.9706777 -14.4655553 39.67048999 -17.73828125 39.6875 C-18.97320312 39.70167969 -20.208125 39.71585938 -21.48046875 39.73046875 C-24.7015971 39.51101543 -26.11436569 38.98249376 -28.86328125 37.5 C-32.5453204 37.81126713 -32.5453204 37.81126713 -35.86328125 38.5 C-36.35828125 37.015 -36.35828125 37.015 -36.86328125 35.5 C-35.87328125 35.005 -35.87328125 35.005 -34.86328125 34.5 C-35.15203125 33.943125 -35.44078125 33.38625 -35.73828125 32.8125 C-39.21508658 25.6657335 -40.49593831 18.71499195 -38.05859375 10.9296875 C-34.51088566 3.71193656 -28.72946567 0.04647377 -21.42578125 -2.875 C-13.2925495 -4.30188276 -7.35288673 -4.06313364 0 0 Z " fill="#E4E3E7" transform="translate(89.86328125,199.5)"/>
<path d="M0 0 C2.97111275 2.60397296 4.73908452 5.21725355 6 9 C6.06740865 10.56118428 6.08514456 12.1250252 6.0625 13.6875 C6.05347656 14.49574219 6.04445313 15.30398437 6.03515625 16.13671875 C6.02355469 16.75160156 6.01195312 17.36648437 6 18 C5.34 18 4.68 18 4 18 C3.91363281 17.34773438 3.82726562 16.69546875 3.73828125 16.0234375 C2.74632592 9.85329334 1.5533442 6.33651829 -3 2 C-8.20191537 -1.22076037 -14.44501323 -0.66845905 -20.28515625 0.4296875 C-25.64871998 2.10386346 -28.94314609 5.34596636 -32 10 C-32.94697533 12.84092599 -33.19486266 14.79096293 -33.25 17.75 C-33.27578125 18.56984375 -33.3015625 19.3896875 -33.328125 20.234375 C-32.89187475 23.91134138 -31.56779361 26.6498726 -30 30 C-28.73542969 29.97679687 -27.47085937 29.95359375 -26.16796875 29.9296875 C-24.5078184 29.91092874 -22.84766167 29.89272865 -21.1875 29.875 C-20.35412109 29.85824219 -19.52074219 29.84148437 -18.66210938 29.82421875 C-17.45844727 29.81455078 -17.45844727 29.81455078 -16.23046875 29.8046875 C-15.49207764 29.79421387 -14.75368652 29.78374023 -13.99291992 29.77294922 C-12 30 -12 30 -9 32 C-8.625 34.5 -8.625 34.5 -9 37 C-12.66755999 39.44503999 -14.57478137 39.26831152 -18.9375 39.25 C-20.16339844 39.25515625 -21.38929688 39.2603125 -22.65234375 39.265625 C-25.80099982 39.01578998 -27.31981243 38.50455984 -30 37 C-32.85418219 37.348071 -35.26879341 38.0895978 -38 39 C-37.67 38.21625 -37.34 37.4325 -37 36.625 C-35.88133489 34.15667503 -35.88133489 34.15667503 -36 32 C-36.66 31.05125 -37.32 30.1025 -38 29.125 C-40.97080986 24.02457734 -40.86848983 18.72136724 -40 13 C-37.51412818 6.41133972 -32.1642993 1.02113427 -25.8671875 -2.03515625 C-16.76636166 -5.44400217 -8.48614117 -4.84287638 0 0 Z " fill="#E7E6EA" transform="translate(346,200)"/>
<path d="M0 0 C0.66 0 1.32 0 2 0 C2.26554688 0.61488281 2.53109375 1.22976562 2.8046875 1.86328125 C3.15789062 2.67152344 3.51109375 3.47976562 3.875 4.3125 C4.39707031 5.51326172 4.39707031 5.51326172 4.9296875 6.73828125 C6.02571894 9.1961834 6.02571894 9.1961834 8 12 C7.625 15.6875 7.625 15.6875 7 19 C7.66 19 8.32 19 9 19 C11 22 11 22 11 25 C11.66 25.33 12.32 25.66 13 26 C8.14722753 34.51816444 8.14722753 34.51816444 3.875 36.3125 C1 36 1 36 -1.25 34.375 C-4.33706684 30.18540929 -5.40775913 26.13275421 -6 21 C-6.08894531 20.35289062 -6.17789063 19.70578125 -6.26953125 19.0390625 C-6.83973767 11.69268215 -3.55185039 6.24745114 0 0 Z " fill="#60567D" transform="translate(247,239)"/>
<path d="M0 0 C4.75 0.75 4.75 0.75 7 3 C7.4140625 5.6015625 7.4140625 5.6015625 7.625 8.625 C7.69976562 9.62789062 7.77453125 10.63078125 7.8515625 11.6640625 C7.92503906 12.82035156 7.92503906 12.82035156 8 14 C8.39832031 13.44570312 8.79664063 12.89140625 9.20703125 12.3203125 C10.00173828 11.23363281 10.00173828 11.23363281 10.8125 10.125 C11.33457031 9.40570313 11.85664063 8.68640625 12.39453125 7.9453125 C14.90694409 4.90107505 16.56818022 4.04626641 20.5 3.625 C24 4 24 4 25.9375 5.5 C28.12554218 10.64833455 27.05687487 15.71562566 26 21 C25.91473984 23.67315692 25.95465006 26.32435381 26 29 C27.98 29.66 29.96 30.32 32 31 C31.34 32.32 30.68 33.64 30 35 C24.5311308 34.51387829 24.5311308 34.51387829 22.31640625 32.37109375 C20.55971332 29.20696138 20.67071914 26.91581511 20.75 23.3125 C20.77578125 22.07886719 20.8015625 20.84523438 20.828125 19.57421875 C21.03181077 15.33848053 21.42068447 11.20003759 22 7 C19.1982633 6.70829092 19.1982633 6.70829092 16 8 C9.04602676 15.59278968 6.29880788 27.44493381 3 37 C2.01 36.67 1.02 36.34 0 36 C-0.0272415 34.58344207 -0.04650467 33.16672955 -0.0625 31.75 C-0.07410156 30.96109375 -0.08570313 30.1721875 -0.09765625 29.359375 C0 27 0 27 0.49780273 25.15966797 C1.06085382 22.73830193 1.12949973 20.57099093 1.1328125 18.0859375 C1.13410156 17.16039062 1.13539063 16.23484375 1.13671875 15.28125 C1.13285156 14.3221875 1.12898437 13.363125 1.125 12.375 C1.12886719 11.40820312 1.13273438 10.44140625 1.13671875 9.4453125 C1.13542969 8.52234375 1.13414062 7.599375 1.1328125 6.6484375 C1.13168457 5.80458496 1.13055664 4.96073242 1.12939453 4.09130859 C1.1331605 1.94038334 1.1331605 1.94038334 0 0 Z " fill="#EBEAED" transform="translate(194,242)"/>
<path d="M0 0 C2.35951179 2.35951179 2.34409415 3.01925635 2.4375 6.25 C2.37475235 9.78668586 1.8804695 11.75883943 -0.375 14.5 C-3.91055538 17.8671956 -5.37703286 18.12337137 -10.125 18.0625 C-11.03507812 18.05347656 -11.94515625 18.04445313 -12.8828125 18.03515625 C-13.93082031 18.01775391 -13.93082031 18.01775391 -15 18 C-14.51005773 11.01832271 -13.13971518 6.24437235 -8.125 1.0625 C-5.26139286 -0.36930357 -3.15674113 -0.34312404 0 0 Z " fill="#110B3F" transform="translate(459,244)"/>
<path d="M0 0 C2.35951179 2.35951179 2.34409415 3.01925635 2.4375 6.25 C2.37475235 9.78668586 1.8804695 11.75883943 -0.375 14.5 C-3.91055538 17.8671956 -5.37703286 18.12337137 -10.125 18.0625 C-11.03507813 18.05347656 -11.94515625 18.04445313 -12.8828125 18.03515625 C-13.93082031 18.01775391 -13.93082031 18.01775391 -15 18 C-14.65341895 11.53048701 -13.1194072 7.07187129 -9 2 C-5.54754176 -0.30163882 -4.05261287 -0.34490322 0 0 Z " fill="#51416D" transform="translate(169,244)"/>
<path d="M0 0 C1.12331476 2.78529507 1.07314683 3.81912783 -0.07421875 6.65625 C-0.60660156 7.5946875 -1.13898438 8.533125 -1.6875 9.5 C-2.20699219 10.4384375 -2.72648438 11.376875 -3.26171875 12.34375 C-4.99351874 14.99009606 -6.50296653 17.05202743 -9 19 C-10.32 18.67 -11.64 18.34 -13 18 C-13.66 14.7 -14.32 11.4 -15 8 C-11.04397799 4.2837369 -8.29147789 3.68593232 -3 3 C-1.07716915 1.58408173 -1.07716915 1.58408173 0 0 Z " fill="#4E3C6A" transform="translate(131,259)"/>
<path d="M0 0 C0.556875 0.268125 1.11375 0.53625 1.6875 0.8125 C0.77871094 1.43769531 -0.13007813 2.06289062 -1.06640625 2.70703125 C-5.2298137 6.1816262 -6.50649116 10.50000102 -8.25 15.5 C-15.1826805 33.98548068 -15.1826805 33.98548068 -22.75 37.9375 C-23.595625 38.22625 -24.44125 38.515 -25.3125 38.8125 C-25.3125 37.8225 -25.3125 36.8325 -25.3125 35.8125 C-24.28125 35.02875 -23.25 34.245 -22.1875 33.4375 C-16.03874268 28.42923799 -13.82199474 20.66058509 -11.00390625 13.4765625 C-5.486889 -0.44488289 -5.486889 -0.44488289 0 0 Z " fill="#DEDCE2" transform="translate(195.3125,241.1875)"/>
<path d="M0 0 C0.763125 0.20625 1.52625 0.4125 2.3125 0.625 C2.168125 1.8625 2.02375 3.1 1.875 4.375 C1.23416738 10.11502931 0.7703378 15.86793318 0.3125 21.625 C-0.0175 21.625 -0.3475 21.625 -0.6875 21.625 C-0.97625 20.51125 -1.265 19.3975 -1.5625 18.25 C-2.37991329 14.62208908 -2.37991329 14.62208908 -4.6875 12.625 C-5.38125748 8.87870961 -5.6875 5.43946899 -5.6875 1.625 C-2.6875 -0.375 -2.6875 -0.375 0 0 Z " fill="#65597F" transform="translate(214.6875,248.375)"/>
<path d="M0 0 C0.99 0 1.98 0 3 0 C2.61381564 10.04079328 -1.72692384 18.32590627 -9.0625 25.125 C-12.23618038 27.86248735 -15.03467372 29.62874635 -19 31 C-18.76171875 29.16796875 -18.76171875 29.16796875 -18 27 C-16.14453125 25.61328125 -16.14453125 25.61328125 -13.8125 24.3125 C-7.19952793 20.16359714 -3.59621446 14.26940049 -1 7 C-0.6186926 4.67402489 -0.27539746 2.34087842 0 0 Z " fill="#D9D8DF" transform="translate(102,256)"/>
<path d="M0 0 C0.66 0 1.32 0 2 0 C1.49342746 10.46916584 -2.20947589 18.10282113 -9.86328125 25.3046875 C-13.04328688 27.82776327 -16.27456991 29.4033871 -20 31 C-19.64763588 28.26330531 -19.31459562 27.24829654 -17.109375 25.5078125 C-16.33078125 25.05148437 -15.5521875 24.59515625 -14.75 24.125 C-5.55265575 18.25094337 -2.42128483 10.31467338 0 0 Z " fill="#DCDBE1" transform="translate(358,256)"/>
<path d="M0 0 C0.99 0 1.98 0 3 0 C-3.10854913 20.56048244 -3.10854913 20.56048244 -11.02734375 25.18359375 C-12.99677229 26.18388347 -14.97440349 27.11994715 -17 28 C-17 27.34 -17 26.68 -17 26 C-18.32 25.67 -19.64 25.34 -21 25 C-19.80375 24.814375 -18.6075 24.62875 -17.375 24.4375 C-12.2109341 23.1077758 -9.78359456 20.43955732 -7 16 C-4.31864004 10.80811465 -2.15479193 5.42615786 0 0 Z " fill="#D7D6DD" transform="translate(475,253)"/>
<path d="M0 0 C0.66 0 1.32 0 2 0 C2.19597479 4.61240676 1.56349523 8.39208335 0.25 12.8125 C-0.07484375 13.95332031 -0.3996875 15.09414062 -0.734375 16.26953125 C-2 19 -2 19 -4.140625 19.88671875 C-4.75421875 19.92410156 -5.3678125 19.96148437 -6 20 C-6.50368582 13.20024147 -5.09684674 8.08066988 -2 2 C-1.34 1.34 -0.68 0.68 0 0 Z " fill="#584E76" transform="translate(248,217)"/>
<path d="M0 0 C0.99 0.33 1.98 0.66 3 1 C3.125 4.375 3.125 4.375 3 8 C2.34 8.66 1.68 9.32 1 10 C1.99 10.33 2.98 10.66 4 11 C4.33 11.99 4.66 12.98 5 14 C1.71303767 14.79953138 0.28976808 15.09658936 -3 14 C-3.66 13.34 -4.32 12.68 -5 12 C-4.73314868 7.33010192 -2.37159913 3.90166308 0 0 Z " fill="#574B74" transform="translate(207,253)"/>
<path d="M0 0 C0.33 0.66 0.66 1.32 1 2 C1.66 2 2.32 2 3 2 C2.67 3.65 2.34 5.3 2 7 C8.35450323 5.75297849 14.68327435 4.42635741 21 3 C20.3359375 4.88671875 20.3359375 4.88671875 19 7 C16.5390625 8.08203125 16.5390625 8.08203125 13.625 8.8125 C12.66851562 9.06644531 11.71203125 9.32039062 10.7265625 9.58203125 C8.00396557 9.9993921 6.56356491 9.88906613 4 9 C3.01 8.67 2.02 8.34 1 8 C0.67 5.36 0.34 2.72 0 0 Z " fill="#DDDBE1" transform="translate(247,229)"/>
<path d="M0 0 C1.07980476 3.21750519 0.97733906 4.82122732 -0.43359375 7.890625 C-0.75263672 8.59960938 -1.07167969 9.30859375 -1.40039062 10.0390625 C-1.74263672 10.76867187 -2.08488281 11.49828125 -2.4375 12.25 C-2.77587891 12.99507813 -3.11425781 13.74015625 -3.46289062 14.5078125 C-4.29826304 16.34327865 -5.14777967 18.17229555 -6 20 C-6.99 20 -7.98 20 -9 20 C-7.58850444 15.69363161 -6.09070992 11.43100969 -4.5 7.1875 C-4.0771875 6.04667969 -3.654375 4.90585938 -3.21875 3.73046875 C-2 1 -2 1 0 0 Z " fill="#DFDFE4" transform="translate(412,251)"/>
<path d="M0 0 C0.99 0.66 1.98 1.32 3 2 C3.1875 4.625 3.1875 4.625 3 7 C2.01 7 1.02 7 0 7 C-1.54749377 8.70326553 -1.54749377 8.70326553 -2.9375 10.875 C-5.01050846 13.95963659 -6.535553 15.57830469 -10 17 C-10 15.68 -10 14.36 -10 13 C-9.01 12.67 -8.02 12.34 -7 12 C-5.35184415 9.75183436 -5.35184415 9.75183436 -3.875 7.0625 C-3.09769531 5.71865234 -3.09769531 5.71865234 -2.3046875 4.34765625 C-1.50791048 2.91393472 -0.73354087 1.46708174 0 0 Z " fill="#DBDAE0" transform="translate(437,262)"/>
<path d="M0 0 C3.91211733 1.15585285 6.8745041 2.35534962 10 5 C8.02 5.99 6.04 6.98 4 8 C3.67 7.01 3.34 6.02 3 5 C1.1477633 3.99521963 1.1477633 3.99521963 -1 4 C-2.77190909 5.35444301 -2.77190909 5.35444301 -4 7 C-4 6.01 -4 5.02 -4 4 C-6.97 3.505 -6.97 3.505 -10 3 C-10 2.67 -10 2.34 -10 2 C-9.04287109 1.90912109 -9.04287109 1.90912109 -8.06640625 1.81640625 C-6.82697266 1.69072266 -6.82697266 1.69072266 -5.5625 1.5625 C-4.73878906 1.48128906 -3.91507812 1.40007812 -3.06640625 1.31640625 C-1.01337975 1.21069185 -1.01337975 1.21069185 0 0 Z " fill="#453663" transform="translate(285,214)"/>
<path d="M0 0 C0 2.97 0 5.94 0 9 C-0.99 9.33 -1.98 9.66 -3 10 C-3.99 9.34 -4.98 8.68 -6 8 C-6.99 8.495 -6.99 8.495 -8 9 C-5.4 0 -5.4 0 0 0 Z M-5 4 C-4.67 4.99 -4.34 5.98 -4 7 C-3.34 6.01 -2.68 5.02 -2 4 C-2.99 4 -3.98 4 -5 4 Z " fill="#5D5078" transform="translate(196,244)"/>
<path d="M0 0 C0.495 0.33 0.99 0.66 1.5 1 C1.17 1.66 0.84 2.32 0.5 3 C-1.27007714 3.08114106 -3.04122098 3.13925505 -4.8125 3.1875 C-5.79863281 3.22230469 -6.78476562 3.25710937 -7.80078125 3.29296875 C-10.5 3 -10.5 3 -12.35546875 1.48828125 C-12.73316406 0.99714844 -13.11085938 0.50601563 -13.5 0 C-8.97258828 -1.50913724 -4.43573202 -1.77429281 0 0 Z " fill="#55446F" transform="translate(333.5,233)"/>
<path d="M0 0 C0.680625 -0.00257813 1.36125 -0.00515625 2.0625 -0.0078125 C4 0.125 4 0.125 7 1.125 C7 2.115 7 3.105 7 4.125 C5.22992286 4.20614106 3.45877902 4.26425505 1.6875 4.3125 C0.70136719 4.34730469 -0.28476563 4.38210937 -1.30078125 4.41796875 C-4 4.125 -4 4.125 -5.85546875 2.61328125 C-6.23316406 2.12214844 -6.61085938 1.63101563 -7 1.125 C-4.32356043 0.23285348 -2.74615622 -0.01040211 0 0 Z " fill="#140E41" transform="translate(72,231.875)"/>
<path d="M0 0 C0.391875 0.639375 0.78375 1.27875 1.1875 1.9375 C3.78167435 4.88949151 6.2013431 4.71330891 10 5 C10 5.33 10 5.66 10 6 C7.69 6 5.38 6 3 6 C3 6.66 3 7.32 3 8 C-0.77545388 6.90931332 -3.47043472 6.0916909 -6 3 C-2.25 0 -2.25 0 0 0 Z " fill="#433462" transform="translate(192,290)"/>
<path d="M0 0 C-3.14378706 4.52705337 -6.16008937 6.58004469 -11 9 C-11.66 9 -12.32 9 -13 9 C-10.89322153 3.31169814 -6.22566238 -0.91553859 0 0 Z " fill="#51416D" transform="translate(388,240)"/>
<path d="M0 0 C2.475 0.99 2.475 0.99 5 2 C4.67 3.32 4.34 4.64 4 6 C4.99 6.66 5.98 7.32 7 8 C6.34 9.32 5.68 10.64 5 12 C1.94150832 9.24735748 0.12608621 6.99248748 -1 3 C-0.67 2.01 -0.34 1.02 0 0 Z " fill="#5F567B" transform="translate(265,257)"/>
<path d="M0 0 C0.33 0 0.66 0 1 0 C1.33242149 4.15526857 1.22487823 6.55857236 -0.6875 10.3125 C-3.06582992 13.07650505 -4.53371274 14.03714243 -8 15 C-8 14.01 -8 13.02 -8 12 C-6.7934375 11.1028125 -6.7934375 11.1028125 -5.5625 10.1875 C-2.71154069 8.18226129 -2.71154069 8.18226129 -2.1875 4.75 C-2.125625 3.8425 -2.06375 2.935 -2 2 C-1.34 2 -0.68 2 0 2 C0 1.34 0 0.68 0 0 Z " fill="#D0CFD8" transform="translate(393,242)"/>
<path d="M0 0 C3.65813817 0.28139524 6.31896306 0.56343786 9.4375 2.5625 C11.73566228 6.14763316 11.28061483 8.79077755 11 13 C10.01 12.67 9.02 12.34 8 12 C7.855625 10.865625 7.71125 9.73125 7.5625 8.5625 C7.38828522 5.19222799 7.38828522 5.19222799 6 4 C3.67182036 3.63239269 1.3381615 3.29758419 -1 3 C-0.67 2.01 -0.34 1.02 0 0 Z " fill="#CBCAD3" transform="translate(453,241)"/>
<path d="M0 0 C1.28583984 -0.02126953 1.28583984 -0.02126953 2.59765625 -0.04296875 C4.9375 0.1875 4.9375 0.1875 7.9375 2.1875 C7.6075 2.8475 7.2775 3.5075 6.9375 4.1875 C2.3175 4.1875 -2.3025 4.1875 -7.0625 4.1875 C-7.0625 3.5275 -7.0625 2.8675 -7.0625 2.1875 C-7.7225 1.8575 -8.3825 1.5275 -9.0625 1.1875 C-5.98998989 0.29640078 -3.19602607 0.02410276 0 0 Z " fill="#C6C4CF" transform="translate(77.0625,195.8125)"/>
<path d="M0 0 C4.04152406 0.23316485 6.33802764 0.4228959 9.4375 3.125 C11.34690605 6.63830712 11.30912975 9.05859564 11 13 C10.01 12.67 9.02 12.34 8 12 C7.855625 10.865625 7.71125 9.73125 7.5625 8.5625 C7.38828522 5.19222799 7.38828522 5.19222799 6 4 C3.67182036 3.63239269 1.3381615 3.29758419 -1 3 C-0.67 2.01 -0.34 1.02 0 0 Z " fill="#D6D3DB" transform="translate(163,241)"/>
<path d="M0 0 C0.99 0 1.98 0 3 0 C1.25192871 5.46737191 -0.65794081 10.75824848 -3 16 C-4.1484375 14.390625 -4.1484375 14.390625 -5 12 C-4.1015625 8.984375 -4.1015625 8.984375 -2.625 5.75 C-2.14289063 4.67234375 -1.66078125 3.5946875 -1.1640625 2.484375 C-0.77992188 1.66453125 -0.39578125 0.8446875 0 0 Z " fill="#CFCED6" transform="translate(475,253)"/>
<path d="M0 0 C0.66 0 1.32 0 2 0 C0.5342196 3.58918119 -1.36776668 5.36377741 -4.4375 7.6875 C-5.21996094 8.28949219 -6.00242187 8.89148438 -6.80859375 9.51171875 C-9 11 -9 11 -12 12 C-11.65112987 9.17231577 -11.24938641 8.20399906 -9.00390625 6.3671875 C-8.19824219 5.87476563 -7.39257812 5.38234375 -6.5625 4.875 C-4.08829834 3.34202754 -2.06278588 2.06278588 0 0 Z " fill="#DFDFE4" transform="translate(95,275)"/>
<path d="M0 0 C1.65 0 3.3 0 5 0 C5.625 2.375 5.625 2.375 6 5 C5.34 5.66 4.68 6.32 4 7 C2.68 7 1.36 7 0 7 C-1.125 2.25 -1.125 2.25 0 0 Z " fill="#3B2457" transform="translate(165,201)"/>
<path d="M0 0 C0.33 0 0.66 0 1 0 C1.32222776 4.67230248 1.43057686 7.13884627 -0.6875 11.375 C-3.06568509 14.07456145 -4.57542144 15.04872818 -8 16 C-8 15.01 -8 14.02 -8 13 C-7.236875 12.46375 -6.47375 11.9275 -5.6875 11.375 C-2.01289209 8.12767208 -1.22009808 4.64232441 0 0 Z " fill="#DFDFE4" transform="translate(462,248)"/>
<path d="M0 0 C0.94875 0.04125 1.8975 0.0825 2.875 0.125 C2.875 1.775 2.875 3.425 2.875 5.125 C0.565 5.125 -1.745 5.125 -4.125 5.125 C-4.455 4.135 -4.785 3.145 -5.125 2.125 C-3.125 0.125 -3.125 0.125 0 0 Z " fill="#321D51" transform="translate(161.125,295.875)"/>
<path d="M0 0 C0.66 0 1.32 0 2 0 C2.125 2.875 2.125 2.875 2 6 C-0.1385485 8.1385485 -1.13275314 8.42655063 -4 9 C-3.4739075 5.21213403 -2.61896089 2.82847776 0 0 Z " fill="#645A80" transform="translate(248,217)"/>
<path d="M0 0 C2.125 0.9375 2.125 0.9375 4 2 C3.67 3.65 3.34 5.3 3 7 C1.68 7.33 0.36 7.66 -1 8 C-1 7.34 -1 6.68 -1 6 C-2.98 6 -4.96 6 -7 6 C-7 5.67 -7 5.34 -7 5 C-4.36 5 -1.72 5 1 5 C1 4.01 1 3.02 1 2 C0.01 1.67 -0.98 1.34 -2 1 C-1.34 0.67 -0.68 0.34 0 0 Z " fill="#C3C1CD" transform="translate(78,231)"/>
<path d="M0 0 C1.32 1.65 2.64 3.3 4 5 C2.87926138 5.83905565 1.75325453 6.67107831 0.625 7.5 C-0.00148438 7.9640625 -0.62796875 8.428125 -1.2734375 8.90625 C-3 10 -3 10 -5 10 C-3.84414715 6.08788267 -2.64465038 3.1254959 0 0 Z " fill="#594974" transform="translate(308,229)"/>
<path d="M0 0 C1.32 0 2.64 0 4 0 C4 1.65 4 3.3 4 5 C3.34 4.34 2.68 3.68 2 3 C1.071875 3.99 1.071875 3.99 0.125 5 C-2 7 -2 7 -4 7 C-4 6.34 -4 5.68 -4 5 C-4.99 4.67 -5.98 4.34 -7 4 C-5.02 3.67 -3.04 3.34 -1 3 C-0.67 2.01 -0.34 1.02 0 0 Z " fill="#D4D1DA" transform="translate(146,263)"/>
<path d="M0 0 C1.98 0 3.96 0 6 0 C6 2.31 6 4.62 6 7 C1.2 4.53846154 1.2 4.53846154 0.1875 1.8125 C0.125625 1.214375 0.06375 0.61625 0 0 Z " fill="#5D537A" transform="translate(253,244)"/>
<path d="M0 0 C1.4540625 0.0309375 1.4540625 0.0309375 2.9375 0.0625 C2.6075 1.3825 2.2775 2.7025 1.9375 4.0625 C0.6175 4.3925 -0.7025 4.7225 -2.0625 5.0625 C-2.7225 3.7425 -3.3825 2.4225 -4.0625 1.0625 C-3.0625 0.0625 -3.0625 0.0625 0 0 Z " fill="#3D2659" transform="translate(331.0625,198.9375)"/>
<path d="M0 0 C-0.33 1.65 -0.66 3.3 -1 5 C-2.65 5 -4.3 5 -6 5 C-6 3.68 -6 2.36 -6 1 C-4 0 -4 0 0 0 Z " fill="#382155" transform="translate(363,203)"/>
<path d="M0 0 C0.66 0.99 1.32 1.98 2 3 C0.3125 6 0.3125 6 -2 9 C-4.75 9.375 -4.75 9.375 -7 9 C-6.57847656 8.51789063 -6.15695312 8.03578125 -5.72265625 7.5390625 C-5.17480469 6.90742188 -4.62695312 6.27578125 -4.0625 5.625 C-3.51722656 4.99851562 -2.97195313 4.37203125 -2.41015625 3.7265625 C-0.93041376 2.04367666 -0.93041376 2.04367666 0 0 Z " fill="#D1D0D9" transform="translate(388,267)"/>
<path d="M0 0 C2.5 1.3125 2.5 1.3125 5 3 C5 3.99 5 4.98 5 6 C4.01 6.33 3.02 6.66 2 7 C2 6.01 2 5.02 2 4 C0.68 3.67 -0.64 3.34 -2 3 C-1.34 2.01 -0.68 1.02 0 0 Z " fill="#5B4E76" transform="translate(222,285)"/>
<path d="M0 0 C2.49361571 1.20381448 4.68143083 2.45428722 7 4 C6.67 5.32 6.34 6.64 6 8 C5.34 8 4.68 8 4 8 C3.34 6.02 2.68 4.04 2 2 C1.34 2 0.68 2 0 2 C0 1.34 0 0.68 0 0 Z " fill="#534871" transform="translate(254,256)"/>
<path d="M0 0 C0.99 0.66 1.98 1.32 3 2 C3 3.32 3 4.64 3 6 C1.35 5.67 -0.3 5.34 -2 5 C-2 3.68 -2 2.36 -2 1 C-1.34 0.67 -0.68 0.34 0 0 Z " fill="#362054" transform="translate(157,188)"/>
<path d="M0 0 C0.33 0 0.66 0 1 0 C1 1.65 1 3.3 1 5 C-0.98 5.99 -0.98 5.99 -3 7 C-3 6.34 -3 5.68 -3 5 C-5.31 5 -7.62 5 -10 5 C-10 4.67 -10 4.34 -10 4 C-6.97265625 3.75585938 -6.97265625 3.75585938 -3.9453125 3.51171875 C-1.60480784 3.12606964 -1.60480784 3.12606964 0 0 Z " fill="#CDC9D4" transform="translate(336,232)"/>
<path d="M0 0 C0.33 0.66 0.66 1.32 1 2 C1.66 2 2.32 2 3 2 C2.67 3.65 2.34 5.3 2 7 C3.65 7 5.3 7 7 7 C7.33 7.99 7.66 8.98 8 10 C5.61435923 9.42415568 3.33317216 8.77772405 1 8 C0.67 5.36 0.34 2.72 0 0 Z " fill="#C1BDCA" transform="translate(247,229)"/>
<path d="M0 0 C2.97 0 5.94 0 9 0 C9 0.66 9 1.32 9 2 C5.7 2.33 2.4 2.66 -1 3 C-0.67 2.01 -0.34 1.02 0 0 Z " fill="#C7C4D0" transform="translate(327,196)"/>
<path d="M0 0 C2.64 0.66 5.28 1.32 8 2 C7.67 2.99 7.34 3.98 7 5 C4.625 4.75 4.625 4.75 2 4 C0.6875 1.9375 0.6875 1.9375 0 0 Z " fill="#D8D7DE" transform="translate(411,276)"/>
<path d="M0 0 C2.31 0.33 4.62 0.66 7 1 C6.67 1.99 6.34 2.98 6 4 C3.69 3.67 1.38 3.34 -1 3 C-0.67 2.01 -0.34 1.02 0 0 Z " fill="#DCDAE0" transform="translate(163,241)"/>
<path d="M0 0 C3.465 1.485 3.465 1.485 7 3 C7 3.99 7 4.98 7 6 C1.25 4.125 1.25 4.125 -1 3 C-0.67 2.01 -0.34 1.02 0 0 Z " fill="#E0DFE4" transform="translate(224,232)"/>
<path d="M0 0 C0.99 0.66 1.98 1.32 3 2 C3.1875 4.625 3.1875 4.625 3 7 C1.35 6.67 -0.3 6.34 -2 6 C-1.34 4.02 -0.68 2.04 0 0 Z " fill="#C8C6D1" transform="translate(437,262)"/>
<path d="M0 0 C0.99 0.66 1.98 1.32 3 2 C1.515 4.475 1.515 4.475 0 7 C-0.66 6.67 -1.32 6.34 -2 6 C-1.34 4.02 -0.68 2.04 0 0 Z " fill="#D3D1DA" transform="translate(405,265)"/>
<path d="M0 0 C0.66 0 1.32 0 2 0 C1.67 2.64 1.34 5.28 1 8 C0.34 8 -0.32 8 -1 8 C-0.67 5.36 -0.34 2.72 0 0 Z " fill="#E6E6E9" transform="translate(358,256)"/>
</svg>
